<?xml version="1.0" standalone="no"?><!DOCTYPE svg PUBLIC "-//W3C//DTD SVG 1.1//EN" "http://www.w3.org/Graphics/SVG/1.1/DTD/svg11.dtd"><svg width="100%" height="100%" viewBox="0 0 268 270" version="1.1" xmlns="http://www.w3.org/2000/svg" xmlns:xlink="http://www.w3.org/1999/xlink" xml:space="preserve" style="fill-rule:evenodd;clip-rule:evenodd;stroke-linejoin:round;stroke-miterlimit:1.41421;"><g id="marker"><path d="M94.1894,195.168c10.4285,-16.0928 35.1202,-37.754 58.1546,-47.0607c12.5501,-5.07139 21.0684,-12.1576 24.2219,-17.6196c10.9535,-18.972 4.63389,-43.1281 -14.1147,-53.9526l-0.000866025,-0.0005c-18.7494,-10.825 -42.8282,-4.21939 -53.7817,14.7526c-3.1535,5.46202 -5.03116,16.3822 -3.14807,29.7866c3.45736,24.6017 -2.95684,56.8154 -11.6784,73.8937l0.347276,0.2005l-3.9975e-05,-2.84217e-14Z" style="fill:#5db6c5;fill-rule:nonzero;"/><path d="M161.701,77.8341c-18.0029,-10.394 -41.211,-4.02241 -51.7335,14.2031c-2.6015,4.50593 -4.93822,14.7593 -2.96233,28.8269c2.95578,21.0304 -1.20821,47.0447 -7.63251,64.9239c12.2726,-14.5027 32.7196,-31.116 52.4104,-39.0714c13.1709,-5.32265 20.8822,-12.473 23.4837,-16.9789c10.5225,-18.2255 4.43728,-41.5096 -13.5657,-51.9036M94.6734,197.18l-2.81545,-1.6255l0.64828,-1.26885c8.39864,-16.4449 15.0077,-48.2482 11.5291,-73.003c-2.08026,-14.8069 0.358173,-25.5904 3.33417,-30.745c11.35,-19.6588 36.3954,-26.5227 55.8307,-15.3017c19.4353,11.221 26.0146,36.3434 14.6646,56.0022c-2.976,5.15458 -11.0956,12.6581 -24.9588,18.26c-23.1776,9.36483 -47.4155,30.9901 -57.4579,46.486l-0.77472,1.19585l2e-05,0Z" style="fill:#000;fill-rule:nonzero;"/></g><path id="dot" d="M157.573,117.831c-4.591,7.95185 -14.7583,10.6762 -22.7102,6.08517c-7.95185,-4.591 -10.6762,-14.7583 -6.08517,-22.7102c4.591,-7.95185 14.7583,-10.6762 22.7102,-6.08517c7.95185,4.591 10.6762,14.7583 6.08517,22.7102" style="fill:#000;fill-rule:nonzero;"/><g transform="matrix(0.866025,0.5,-0.5,0.866025,-18.4679,-39.4504)"><text x="199.693px" y="51.7158px" style="font-family:Helvetica Neue;font-size:12px;font-weight:500;fill:#fff;">Click</text></g></svg>